{"title":"Catch.44.2011.PL.BRRip.XviD-RLF","uid":7056306,"size":736923849,"categoryP":"video","categoryS":"movies","magnet":"?xt=urn:btih:c734671bca157d0b1e1d3f39a7a0a16bb91bb226&amp;dn=Catch.44.2011.PL.BRRip.XviD-RLF&amp;tr=udp%3A%2F%2Ftracker.openbittorrent.com%3A80&amp;tr=udp%3A%2F%2Fopen.demonii.com%3A1337&amp;tr=udp%3A%2F%2Ftracker.coppersurfer.tk%3A6969&amp;tr=udp%3A%2F%2Fexodus.desync.com%3A6969","seeders":2,"leechers":0,"uploader":"rlf-rls","files":-1,"time":1330133096,"description":"Catch.44.2011.PL.BRRip.XViD-RLF\n~~~~~~~~~~~~~~~~~~~~~~~~~~~~~~~\n\nGENERAL:\n\nComplete name: rlf-catch44-pl.avi\nFormat: AVI\nFormat/Info: Audio Video Interleave\nFile size: 697 MiB\nDuration: 1h 33mn\nOverall bit rate: 1 039 Kbps\nLanguage: Polish\nSubs: N/A \nEncoder: Ralf\n\nVideo:\n\nFormat: MPEG-4 Visual\nFormat profile: Advanced Simple@L5\nFormat settings, BVOP: 2\nFormat settings, QPel: No\nFormat settings, GMC: No warppoints\nFormat settings, Matrix: H.263\nMuxing mode: Packed bitstream\nCodec ID: XVID\nDuration: 1h 33mn\nBit rate: 900 Kbps\nWidth: 688 pixels\nHeight: 288 pixels\nDisplay aspect ratio: 2.35:1\nFrame rate: 23.976 fps\nColor space: YUV\nChroma subsampling: 4:2:0\nBit depth: 8 bits\nScan type: Progressive\nBits/(Pixel*Frame): 0.189\nStream size: 604 MiB (86%)\n\nAudio:\n\nFormat: AC-3\nFormat/Info: Audio Coding 3\nDuration: 1h 33mn\nBit rate mode: Constant\nBit rate: 128 Kbps\nChannel(s): 2 channels\nChannel positions: Front: L R\nSampling rate: 48.0 KHz\nBit depth: 16 bits\nStream size: 85.9 MiB (12%)\nInterleave, duration: 32 ms (0.77 video frame)\n\nMOVIE INFO:\n\nDla Tes i jej dwoch towarzyszek Kary oraz Dawn zadanie wydawalo sie\ndosc latwe: przechwycic transport narkotykow dla szefa mafii, Mela.\nJednak gdy uruchamia sie lancuch wydarzen i zamieszanych w niego \ndziwnych nieznajomych, dziewczyny znajduja sie w centrum strzelaniny.\nZdaja sobie sprawe, ze nikt nie jest tym za kogo sie podaje, a \nzadanie jest czyms wiecej niz zwykla eliminacja konkurencji.\n &lt;a href=&quot;\nhttp://www.imdb.com/title/tt1886493/&quot; rel=&quot;nofollow&quot; target=&quot;_NEW&quot;&gt;\nhttp://www.imdb.com/title/tt1886493/&lt;/a&gt; &lt;a href=&quot;\nhttp://www.filmweb.pl/film/Catch+.44-2011-491087&quot; rel=&quot;nofollow&quot; target=&quot;_NEW&quot;&gt;\nhttp://www.filmweb.pl/film/Catch+.44-2011-491087&lt;/a&gt;\n\nSOURCE:\n\nHDChina's 1080p.BluRay.x264 / DS-Vego's AC3 5.1 (THX)\n\nSCREENS:\n &lt;a href=&quot;\nhttp://www.postimg.com/54000/photo-53575.jpg&quot; rel=&quot;nofollow&quot; target=&quot;_NEW&quot;&gt;\nhttp://www.postimg.com/54000/photo-53575.jpg&lt;/a&gt; &lt;a href=&quot;\nhttp://www.postimg.com/54000/photo-53572.jpg&quot; rel=&quot;nofollow&quot; target=&quot;_NEW&quot;&gt;\nhttp://www.postimg.com/54000/photo-53572.jpg&lt;/a&gt; &lt;a href=&quot;\nhttp://www.postimg.com/54000/photo-53573.jpg&quot; rel=&quot;nofollow&quot; target=&quot;_NEW&quot;&gt;\nhttp://www.postimg.com/54000/photo-53573.jpg&lt;/a&gt; &lt;a href=&quot;\nhttp://www.postimg.com/54000/photo-53574.jpg&quot; rel=&quot;nofollow&quot; target=&quot;_NEW&quot;&gt;\nhttp://www.postimg.com/54000/photo-53574.jpg&lt;/a&gt;","torrent":{"xt":"urn:btih:c734671bca157d0b1e1d3f39a7a0a16bb91bb226","amp;dn":"Catch.44.2011.PL.BRRip.XviD-RLF","amp;tr":["udp%3A%2F%2Ftracker.openbittorrent.com%3A80","udp%3A%2F%2Fopen.demonii.com%3A1337","udp%3A%2F%2Ftracker.coppersurfer.tk%3A6969","udp%3A%2F%2Fexodus.desync.com%3A6969"],"infoHash":"c734671bca157d0b1e1d3f39a7a0a16bb91bb226","infoHashBuffer":{"type":"Buffer","data":[199,52,103,27,202,21,125,11,30,29,63,57,167,160,161,107,185,27,178,38]},"announce":[],"urlList":[]}}